<svg id="visual" viewBox="0 0 1816 1285" width="1816" height="1285" xmlns="http://www.w3.org/2000/svg" xmlns:xlink="http://www.w3.org/1999/xlink" version="1.1"><rect x="0" y="0" width="1816" height="1285" fill="#001220"></rect><defs><linearGradient id="grad1_0" x1="29.2%" y1="100%" x2="100%" y2="0%"><stop offset="21.735408560311285%" stop-color="#001220" stop-opacity="1"></stop><stop offset="78.26459143968873%" stop-color="#001220" stop-opacity="1"></stop></linearGradient></defs><defs><linearGradient id="grad2_0" x1="0%" y1="100%" x2="70.8%" y2="0%"><stop offset="21.735408560311285%" stop-color="#001220" stop-opacity="1"></stop><stop offset="78.26459143968873%" stop-color="#001220" stop-opacity="1"></stop></linearGradient></defs><g transform="translate(1816, 1285)"><path d="M-834.2 0C-830.6 -90.7 -826.9 -181.5 -784.6 -254.9C-742.4 -328.4 -661.5 -384.6 -594.6 -432C-527.8 -479.4 -474.9 -518 -425 -584.9C-375.1 -651.8 -328.1 -747.1 -257.8 -793.4C-187.5 -839.7 -93.7 -837 0 -834.2L0 0Z" fill="#FBAE3C"></path></g><g transform="translate(0, 0)"><path d="M834.2 0C815.8 81.2 797.3 162.5 779.9 253.4C762.5 344.3 746.1 445 674.9 490.4C603.7 535.7 477.7 525.8 395 543.7C312.3 561.5 273.1 607 214.5 660C155.9 713.1 77.9 773.7 0 834.2L0 0Z" fill="#FBAE3C"></path></g></svg>