<svg id="visual" viewBox="0 0 1816 1285" width="1816" height="1285" xmlns="http://www.w3.org/2000/svg" xmlns:xlink="http://www.w3.org/1999/xlink" version="1.1"><rect x="0" y="0" width="1816" height="1285" fill="#001220"></rect><defs><linearGradient id="grad1_0" x1="29.2%" y1="0%" x2="100%" y2="100%"><stop offset="21.735408560311285%" stop-color="#fbae3c" stop-opacity="1"></stop><stop offset="78.26459143968873%" stop-color="#fbae3c" stop-opacity="1"></stop></linearGradient></defs><defs><linearGradient id="grad1_1" x1="29.2%" y1="0%" x2="100%" y2="100%"><stop offset="21.735408560311285%" stop-color="#fbae3c" stop-opacity="1"></stop><stop offset="78.26459143968873%" stop-color="#cc5867" stop-opacity="1"></stop></linearGradient></defs><defs><linearGradient id="grad1_2" x1="29.2%" y1="0%" x2="100%" y2="100%"><stop offset="21.735408560311285%" stop-color="#593762" stop-opacity="1"></stop><stop offset="78.26459143968873%" stop-color="#cc5867" stop-opacity="1"></stop></linearGradient></defs><defs><linearGradient id="grad1_3" x1="29.2%" y1="0%" x2="100%" y2="100%"><stop offset="21.735408560311285%" stop-color="#593762" stop-opacity="1"></stop><stop offset="78.26459143968873%" stop-color="#001220" stop-opacity="1"></stop></linearGradient></defs><defs><linearGradient id="grad2_0" x1="0%" y1="0%" x2="70.8%" y2="100%"><stop offset="21.735408560311285%" stop-color="#fbae3c" stop-opacity="1"></stop><stop offset="78.26459143968873%" stop-color="#fbae3c" stop-opacity="1"></stop></linearGradient></defs><defs><linearGradient id="grad2_1" x1="0%" y1="0%" x2="70.8%" y2="100%"><stop offset="21.735408560311285%" stop-color="#cc5867" stop-opacity="1"></stop><stop offset="78.26459143968873%" stop-color="#fbae3c" stop-opacity="1"></stop></linearGradient></defs><defs><linearGradient id="grad2_2" x1="0%" y1="0%" x2="70.8%" y2="100%"><stop offset="21.735408560311285%" stop-color="#cc5867" stop-opacity="1"></stop><stop offset="78.26459143968873%" stop-color="#593762" stop-opacity="1"></stop></linearGradient></defs><defs><linearGradient id="grad2_3" x1="0%" y1="0%" x2="70.8%" y2="100%"><stop offset="21.735408560311285%" stop-color="#001220" stop-opacity="1"></stop><stop offset="78.26459143968873%" stop-color="#593762" stop-opacity="1"></stop></linearGradient></defs><g transform="translate(1816, 0)"><path d="M0 723C-73 698.4 -145.9 673.7 -207.4 638.2C-268.8 602.6 -318.6 556.2 -376.8 518.6C-435 481 -501.5 452.3 -558.2 405.6C-614.9 358.8 -661.8 294 -687.6 223.4C-713.5 152.8 -718.2 76.4 -723 0L0 0Z" fill="#232745"></path><path d="M0 542.3C-54.7 523.8 -109.5 505.3 -155.5 478.6C-201.6 452 -238.9 417.1 -282.6 388.9C-326.2 360.8 -376.1 339.2 -418.7 304.2C-461.2 269.1 -496.4 220.5 -515.7 167.6C-535.1 114.6 -538.7 57.3 -542.3 0L0 0Z" fill="#96446e"></path><path d="M0 361.5C-36.5 349.2 -73 336.9 -103.7 319.1C-134.4 301.3 -159.3 278.1 -188.4 259.3C-217.5 240.5 -250.8 226.2 -279.1 202.8C-307.5 179.4 -330.9 147 -343.8 111.7C-356.7 76.4 -359.1 38.2 -361.5 0L0 0Z" fill="#f17c53"></path><path d="M0 180.8C-18.2 174.6 -36.5 168.4 -51.8 159.5C-67.2 150.7 -79.6 139 -94.2 129.6C-108.7 120.3 -125.4 113.1 -139.6 101.4C-153.7 89.7 -165.5 73.5 -171.9 55.9C-178.4 38.2 -179.6 19.1 -180.8 0L0 0Z" fill="#fbae3c"></path></g><g transform="translate(0, 1285)"><path d="M0 -723C60 -669.3 120 -615.5 195.6 -602C271.2 -588.5 362.4 -615.4 425 -584.9C487.6 -554.5 521.7 -466.9 538.8 -391.5C555.9 -316.1 556.1 -252.9 583.9 -189.7C611.8 -126.5 667.4 -63.3 723 0L0 0Z" fill="#232745"></path><path d="M0 -542.3C45 -501.9 90 -461.6 146.7 -451.5C203.4 -441.4 271.8 -461.5 318.7 -438.7C365.7 -415.9 391.3 -350.1 404.1 -293.6C416.9 -237.1 417.1 -189.7 438 -142.3C458.9 -94.9 500.6 -47.5 542.3 0L0 0Z" fill="#96446e"></path><path d="M0 -361.5C30 -334.6 60 -307.7 97.8 -301C135.6 -294.3 181.2 -307.7 212.5 -292.5C243.8 -277.3 260.8 -233.4 269.4 -195.7C278 -158 278 -126.5 292 -94.9C305.9 -63.3 333.7 -31.6 361.5 0L0 0Z" fill="#f17c53"></path><path d="M0 -180.8C15 -167.3 30 -153.9 48.9 -150.5C67.8 -147.1 90.6 -153.8 106.2 -146.2C121.9 -138.6 130.4 -116.7 134.7 -97.9C139 -79 139 -63.2 146 -47.4C153 -31.6 166.9 -15.8 180.8 0L0 0Z" fill="#fbae3c"></path></g></svg>